<?xml version="1.0" encoding="UTF-8"?>
<svg version="1.1" xmlns="http://www.w3.org/2000/svg" width="512" height="512">
<path d="M0 0 C0.92971115 -0.0049649 1.8594223 -0.00992981 2.81730652 -0.01504517 C5.87373617 -0.02957138 8.93011385 -0.03645465 11.98657227 -0.04199219 C13.03920824 -0.04481956 14.09184422 -0.04764694 15.17637825 -0.05056 C20.75267916 -0.06551792 26.32895446 -0.07476744 31.90527344 -0.07910156 C37.62058836 -0.08456524 43.33566254 -0.10855864 49.05090237 -0.13707352 C53.48402046 -0.1558478 57.91708243 -0.16091341 62.35023689 -0.16243744 C64.45463431 -0.16543384 66.55903146 -0.17335825 68.66338921 -0.18662262 C101.30843854 -0.37762266 134.88422772 7.94694576 159.3190918 31.00463867 C161.02204279 32.70471829 162.69781807 34.42655838 164.36547852 36.16113281 C165.14922852 36.92425781 165.93297852 37.68738281 166.74047852 38.47363281 C167.60672852 39.36050781 168.47297852 40.24738281 169.36547852 41.16113281 C170.02290039 41.83402344 170.68032227 42.50691406 171.35766602 43.20019531 C192.75155921 65.92658013 203.71239096 96.75990922 203.63290405 127.71224976 C203.63743517 129.02500621 203.64196628 130.33776267 203.6466347 131.69029963 C203.65876515 135.30013321 203.65861618 138.90987344 203.65624595 142.5197227 C203.65583528 146.42560777 203.66689998 150.33146388 203.67636108 154.23733521 C203.69291297 161.87384909 203.69846782 169.51033209 203.69958584 177.14686243 C203.70053827 183.35266967 203.70465824 189.55846676 203.71098709 195.76427078 C203.72857699 213.37099326 203.7378285 230.97769143 203.73632614 248.58442275 C203.73624623 249.53190016 203.73616632 250.47937756 203.73608398 251.45556641 C203.73600222 252.40420325 203.73592046 253.3528401 203.73583622 254.33022352 C203.73502206 269.72871516 203.75419842 285.12710929 203.78236072 300.5255727 C203.81107058 316.34842218 203.82490233 332.17122402 203.82317317 347.99410021 C203.82250902 356.87305557 203.82801316 365.75190843 203.84952927 374.6308403 C203.86771519 382.18347779 203.87210911 389.73596623 203.85851042 397.28861611 C203.85197005 401.14160421 203.85190224 404.99430609 203.86921692 408.84726715 C203.88778688 413.02236851 203.87542282 417.19680395 203.85995483 421.37191772 C203.87024196 422.59135869 203.88052909 423.81079966 203.89112794 425.06719339 C203.83916869 431.38998808 203.69135961 435.39080282 199.36547852 440.16113281 C195.52311439 443.5514541 191.71540108 443.6829773 186.77954102 443.50097656 C182.14416784 442.84842403 179.48153679 440.24073183 176.21313477 437.07910156 C175.4384082 436.34304688 174.66368164 435.60699219 173.86547852 434.84863281 C173.15391602 434.130625 172.44235352 433.41261719 171.70922852 432.67285156 C169.43402314 430.93639971 169.43402314 430.93639971 166.54907227 430.97753906 C161.89859597 432.70648915 159.25410195 435.81770139 155.92797852 439.41113281 C143.57796163 452.5322357 143.57796163 452.5322357 136.92797852 453.22363281 C135.90897461 453.36478516 135.90897461 453.36478516 134.86938477 453.50878906 C126.73287239 452.3790705 121.46163428 446.74612067 116.05297852 441.03613281 C114.66316244 439.59399125 113.27131947 438.15379955 111.87719727 436.71582031 C111.27351318 436.08144043 110.6698291 435.44706055 110.04785156 434.79345703 C107.61724462 432.43515809 106.08705564 431.18183804 102.64282227 431.08300781 C97.86080061 432.65611625 95.29479723 435.77373559 91.92797852 439.41113281 C79.57796163 452.5322357 79.57796163 452.5322357 72.92797852 453.22363281 C72.24864258 453.31773437 71.56930664 453.41183594 70.86938477 453.50878906 C61.40770649 452.1950771 55.66698787 444.72502239 49.54516602 438.09667969 C45.38851655 433.6891824 45.38851655 433.6891824 40.07641602 430.96582031 C36.8637837 431.19727797 35.89504038 431.73946046 33.61547852 433.97363281 C32.94258789 434.61558594 32.26969727 435.25753906 31.57641602 435.91894531 C30.48200195 437.02882813 30.48200195 437.02882813 29.36547852 438.16113281 C15.5143715 452.18377057 15.5143715 452.18377057 6.90454102 453.47363281 C-2.56891912 452.30766849 -8.35969376 444.69613312 -14.45483398 438.09667969 C-18.61148345 433.6891824 -18.61148345 433.6891824 -23.92358398 430.96582031 C-27.1362163 431.19727797 -28.10495962 431.73946046 -30.38452148 433.97363281 C-31.39385742 434.9365625 -31.39385742 434.9365625 -32.42358398 435.91894531 C-33.51799805 437.02882813 -33.51799805 437.02882813 -34.63452148 438.16113281 C-48.4856285 452.18377057 -48.4856285 452.18377057 -57.09545898 453.47363281 C-66.56891912 452.30766849 -72.35969376 444.69613312 -78.45483398 438.09667969 C-82.61130376 433.69757743 -82.61130376 433.69757743 -87.90405273 430.94238281 C-91.26472743 431.21162141 -92.32833783 431.98967681 -94.69702148 434.34863281 C-95.37120117 434.99445313 -96.04538086 435.64027344 -96.73999023 436.30566406 C-97.6777832 437.22412109 -97.6777832 437.22412109 -98.63452148 438.16113281 C-103.8030367 442.43077582 -106.41974344 443.51940226 -113.09155273 443.44238281 C-116.82632567 443.02932037 -118.87393976 441.65238949 -121.63452148 439.16113281 C-125.19066262 434.37873611 -125.75858813 429.74604348 -125.76315594 423.90651798 C-125.76638038 422.86162805 -125.76960483 421.81673811 -125.77292699 420.74018484 C-125.77137838 419.59858025 -125.76982978 418.45697565 -125.76823425 417.28077698 C-125.77049981 416.06287804 -125.77276537 414.8449791 -125.77509958 413.59017414 C-125.78033612 410.21205306 -125.78108419 406.83398519 -125.7799052 403.45586383 C-125.77970111 399.81063956 -125.78522114 396.16542322 -125.78996277 392.52020264 C-125.79827165 385.37534374 -125.80101783 378.23049309 -125.80157515 371.08562977 C-125.80205074 365.26928867 -125.80410766 359.45295028 -125.80727577 353.63661003 C-125.81608743 337.12099792 -125.82069501 320.60539231 -125.8199453 304.08977783 C-125.81990534 303.1992991 -125.81986539 302.30882036 -125.81982422 301.39135742 C-125.81978334 300.49978071 -125.81974246 299.608204 -125.81970034 298.68960982 C-125.819295 284.28119158 -125.82883492 269.87279962 -125.84296259 255.46438897 C-125.85737731 240.64513996 -125.8642298 225.82590371 -125.86336881 211.00664753 C-125.86303832 202.69720059 -125.86571939 194.38778111 -125.87654686 186.07834053 C-125.88571972 178.9933782 -125.88777256 171.90845572 -125.88103744 164.82348997 C-125.87780443 161.21775241 -125.87759625 157.612091 -125.88639069 154.00636101 C-125.97973011 113.01416594 -121.58926607 76.03935032 -93.63452148 44.16113281 C-92.96163086 43.34386719 -92.28874023 42.52660156 -91.59545898 41.68457031 C-81.12351015 29.33002393 -68.02498836 20.35812419 -53.63452148 13.16113281 C-52.99434082 12.83773926 -52.35416016 12.5143457 -51.69458008 12.18115234 C-35.53807816 4.17057904 -18.01714709 0.02339479 0 0 Z " fill="#FAF7ED" transform="translate(216.634521484375,26.8388671875)"/>
<path d="M0 0 C0.92971115 -0.0049649 1.8594223 -0.00992981 2.81730652 -0.01504517 C5.87373617 -0.02957138 8.93011385 -0.03645465 11.98657227 -0.04199219 C13.03920824 -0.04481956 14.09184422 -0.04764694 15.17637825 -0.05056 C20.75267916 -0.06551792 26.32895446 -0.07476744 31.90527344 -0.07910156 C37.62058836 -0.08456524 43.33566254 -0.10855864 49.05090237 -0.13707352 C53.48402046 -0.1558478 57.91708243 -0.16091341 62.35023689 -0.16243744 C64.45463431 -0.16543384 66.55903146 -0.17335825 68.66338921 -0.18662262 C101.30843854 -0.37762266 134.88422772 7.94694576 159.3190918 31.00463867 C161.02204279 32.70471829 162.69781807 34.42655838 164.36547852 36.16113281 C165.14922852 36.92425781 165.93297852 37.68738281 166.74047852 38.47363281 C167.60672852 39.36050781 168.47297852 40.24738281 169.36547852 41.16113281 C170.02290039 41.83402344 170.68032227 42.50691406 171.35766602 43.20019531 C192.75155921 65.92658013 203.71239096 96.75990922 203.63290405 127.71224976 C203.63743517 129.02500621 203.64196628 130.33776267 203.6466347 131.69029963 C203.65876515 135.30013321 203.65861618 138.90987344 203.65624595 142.5197227 C203.65583528 146.42560777 203.66689998 150.33146388 203.67636108 154.23733521 C203.69291297 161.87384909 203.69846782 169.51033209 203.69958584 177.14686243 C203.70053827 183.35266967 203.70465824 189.55846676 203.71098709 195.76427078 C203.72857699 213.37099326 203.7378285 230.97769143 203.73632614 248.58442275 C203.73624623 249.53190016 203.73616632 250.47937756 203.73608398 251.45556641 C203.73600222 252.40420325 203.73592046 253.3528401 203.73583622 254.33022352 C203.73502206 269.72871516 203.75419842 285.12710929 203.78236072 300.5255727 C203.81107058 316.34842218 203.82490233 332.17122402 203.82317317 347.99410021 C203.82250902 356.87305557 203.82801316 365.75190843 203.84952927 374.6308403 C203.86771519 382.18347779 203.87210911 389.73596623 203.85851042 397.28861611 C203.85197005 401.14160421 203.85190224 404.99430609 203.86921692 408.84726715 C203.88778688 413.02236851 203.87542282 417.19680395 203.85995483 421.37191772 C203.87024196 422.59135869 203.88052909 423.81079966 203.89112794 425.06719339 C203.83916869 431.38998808 203.69135961 435.39080282 199.36547852 440.16113281 C195.52311439 443.5514541 191.71540108 443.6829773 186.77954102 443.50097656 C182.14416784 442.84842403 179.48153679 440.24073183 176.21313477 437.07910156 C175.4384082 436.34304688 174.66368164 435.60699219 173.86547852 434.84863281 C173.15391602 434.130625 172.44235352 433.41261719 171.70922852 432.67285156 C169.43402314 430.93639971 169.43402314 430.93639971 166.54907227 430.97753906 C161.89859597 432.70648915 159.25410195 435.81770139 155.92797852 439.41113281 C143.57796163 452.5322357 143.57796163 452.5322357 136.92797852 453.22363281 C135.90897461 453.36478516 135.90897461 453.36478516 134.86938477 453.50878906 C126.73287239 452.3790705 121.46163428 446.74612067 116.05297852 441.03613281 C114.66316244 439.59399125 113.27131947 438.15379955 111.87719727 436.71582031 C111.27351318 436.08144043 110.6698291 435.44706055 110.04785156 434.79345703 C107.61724462 432.43515809 106.08705564 431.18183804 102.64282227 431.08300781 C97.86080061 432.65611625 95.29479723 435.77373559 91.92797852 439.41113281 C79.57796163 452.5322357 79.57796163 452.5322357 72.92797852 453.22363281 C72.24864258 453.31773437 71.56930664 453.41183594 70.86938477 453.50878906 C61.40770649 452.1950771 55.66698787 444.72502239 49.54516602 438.09667969 C45.38851655 433.6891824 45.38851655 433.6891824 40.07641602 430.96582031 C36.8637837 431.19727797 35.89504038 431.73946046 33.61547852 433.97363281 C32.94258789 434.61558594 32.26969727 435.25753906 31.57641602 435.91894531 C30.48200195 437.02882813 30.48200195 437.02882813 29.36547852 438.16113281 C15.5143715 452.18377057 15.5143715 452.18377057 6.90454102 453.47363281 C-2.56891912 452.30766849 -8.35969376 444.69613312 -14.45483398 438.09667969 C-18.61148345 433.6891824 -18.61148345 433.6891824 -23.92358398 430.96582031 C-27.1362163 431.19727797 -28.10495962 431.73946046 -30.38452148 433.97363281 C-31.39385742 434.9365625 -31.39385742 434.9365625 -32.42358398 435.91894531 C-33.51799805 437.02882813 -33.51799805 437.02882813 -34.63452148 438.16113281 C-48.4856285 452.18377057 -48.4856285 452.18377057 -57.09545898 453.47363281 C-66.56891912 452.30766849 -72.35969376 444.69613312 -78.45483398 438.09667969 C-82.61130376 433.69757743 -82.61130376 433.69757743 -87.90405273 430.94238281 C-91.26472743 431.21162141 -92.32833783 431.98967681 -94.69702148 434.34863281 C-95.37120117 434.99445313 -96.04538086 435.64027344 -96.73999023 436.30566406 C-97.6777832 437.22412109 -97.6777832 437.22412109 -98.63452148 438.16113281 C-103.8030367 442.43077582 -106.41974344 443.51940226 -113.09155273 443.44238281 C-116.82632567 443.02932037 -118.87393976 441.65238949 -121.63452148 439.16113281 C-125.19066262 434.37873611 -125.75858813 429.74604348 -125.76315594 423.90651798 C-125.76638038 422.86162805 -125.76960483 421.81673811 -125.77292699 420.74018484 C-125.77137838 419.59858025 -125.76982978 418.45697565 -125.76823425 417.28077698 C-125.77049981 416.06287804 -125.77276537 414.8449791 -125.77509958 413.59017414 C-125.78033612 410.21205306 -125.78108419 406.83398519 -125.7799052 403.45586383 C-125.77970111 399.81063956 -125.78522114 396.16542322 -125.78996277 392.52020264 C-125.79827165 385.37534374 -125.80101783 378.23049309 -125.80157515 371.08562977 C-125.80205074 365.26928867 -125.80410766 359.45295028 -125.80727577 353.63661003 C-125.81608743 337.12099792 -125.82069501 320.60539231 -125.8199453 304.08977783 C-125.81990534 303.1992991 -125.81986539 302.30882036 -125.81982422 301.39135742 C-125.81978334 300.49978071 -125.81974246 299.608204 -125.81970034 298.68960982 C-125.819295 284.28119158 -125.82883492 269.87279962 -125.84296259 255.46438897 C-125.85737731 240.64513996 -125.8642298 225.82590371 -125.86336881 211.00664753 C-125.86303832 202.69720059 -125.86571939 194.38778111 -125.87654686 186.07834053 C-125.88571972 178.9933782 -125.88777256 171.90845572 -125.88103744 164.82348997 C-125.87780443 161.21775241 -125.87759625 157.612091 -125.88639069 154.00636101 C-125.97973011 113.01416594 -121.58926607 76.03935032 -93.63452148 44.16113281 C-92.96163086 43.34386719 -92.28874023 42.52660156 -91.59545898 41.68457031 C-81.12351015 29.33002393 -68.02498836 20.35812419 -53.63452148 13.16113281 C-52.99434082 12.83773926 -52.35416016 12.5143457 -51.69458008 12.18115234 C-35.53807816 4.17057904 -18.01714709 0.02339479 0 0 Z M-79.63452148 42.16113281 C-80.4556543 42.91910156 -81.27678711 43.67707031 -82.12280273 44.45800781 C-103.06446961 64.39004534 -116.02986933 93.80232417 -116.98327637 122.65414429 C-117.15918713 130.89390199 -117.09897529 139.13621802 -117.04009724 147.3769815 C-117.01477471 151.53020909 -117.01271765 155.68345333 -117.00799561 159.83674622 C-116.99565512 167.67023474 -116.96295697 175.503495 -116.92259765 183.33688384 C-116.87759876 192.26819827 -116.85582284 201.19952468 -116.83581591 210.13092458 C-116.79421433 228.47445584 -116.7240397 246.81777585 -116.63452148 265.16113281 C-115.58325404 264.63070924 -115.58325404 264.63070924 -114.51074886 264.08957005 C-108.60802077 261.23684905 -104.15343211 259.53491736 -97.59960938 259.5300293 C-96.87600723 259.52287399 -96.15240509 259.51571869 -95.40687561 259.50834656 C-93.05629878 259.4916789 -90.70769002 259.51073081 -88.35717773 259.53222656 C-86.69770655 259.53139574 -85.03823547 259.52892833 -83.37876892 259.5249176 C-79.91664581 259.52207448 -76.45517492 259.53661208 -72.99316406 259.56420898 C-68.58762996 259.5982627 -64.18326248 259.59226838 -59.77767277 259.57354641 C-56.35520456 259.56290282 -52.93300089 259.57198085 -49.51055717 259.58693123 C-47.88769762 259.59206154 -46.26480983 259.59169492 -44.64195442 259.58538628 C-32.08718513 259.55489401 -20.57677672 260.67480624 -10.60717773 269.10644531 C-2.28206165 277.77775435 -0.32720022 287.31655288 -0.26342773 298.88769531 C-0.25439926 299.91236908 -0.24537079 300.93704285 -0.23606873 301.99276733 C-0.22160581 304.15611877 -0.21268937 306.31951355 -0.20898438 308.48291016 C-0.19713304 311.75532888 -0.14794427 315.02583252 -0.09741211 318.29785156 C0.0100112 332.12226789 -0.34853529 344.87338999 -10.53686523 355.44238281 C-21.71694071 364.60296607 -32.8421647 364.94780351 -46.63452148 364.16113281 C-55.22735074 363.00195164 -61.9388106 358.65569823 -67.42358398 351.98535156 C-72.02498394 345.42325655 -74.55940091 339.39793837 -75.20874023 331.40332031 C-75.2908374 330.41960449 -75.37293457 329.43588867 -75.45751953 328.42236328 C-75.51593018 327.67615723 -75.57434082 326.92995117 -75.63452148 326.16113281 C-76.47225098 326.14131348 -77.30998047 326.12149414 -78.1730957 326.10107422 C-81.27817982 326.02302669 -84.38286687 325.93633646 -87.48754883 325.84375 C-89.4933912 325.78659245 -91.49951066 325.73944685 -93.50561523 325.69238281 C-94.76245117 325.65371094 -96.01928711 325.61503906 -97.31420898 325.57519531 C-98.47678223 325.54377441 -99.63935547 325.51235352 -100.8371582 325.47998047 C-103.63452148 325.16113281 -103.63452148 325.16113281 -105.63452148 323.16113281 C-105.13952148 321.18113281 -105.13952148 321.18113281 -104.63452148 319.16113281 C-90.27952148 318.66613281 -90.27952148 318.66613281 -75.63452148 318.16113281 C-75.13952148 308.75613281 -75.13952148 308.75613281 -74.63452148 299.16113281 C-72.98452148 299.16113281 -71.33452148 299.16113281 -69.63452148 299.16113281 C-67.89670572 300.89894857 -68.5246246 303.1409804 -68.5226593 305.45539856 C-68.52582405 306.57237373 -68.52582405 306.57237373 -68.52905273 307.71191406 C-68.51557306 309.29460979 -68.5005457 310.87729293 -68.48413086 312.45996094 C-68.46149725 314.95038812 -68.44684805 317.43941805 -68.45947266 319.92993164 C-68.50192073 331.34157903 -67.88220901 341.22754965 -59.81542969 350.17993164 C-52.78116194 356.8894919 -45.19251005 357.75490113 -35.91894531 357.71191406 C-27.53040538 357.45253318 -20.84729818 355.18012178 -14.68139648 349.29785156 C-8.46709072 341.77130162 -7.16783118 333.06490578 -7.16577148 323.57128906 C-7.15815796 322.58672226 -7.15054443 321.60215546 -7.1427002 320.5877533 C-7.13195692 318.5179191 -7.12902241 316.44803096 -7.13354492 314.37817383 C-7.13451789 311.23523521 -7.09281463 308.09473606 -7.04858398 304.95214844 C-7.04337623 302.92936701 -7.0406888 300.9065772 -7.04077148 298.88378906 C-7.02437622 297.95744156 -7.00798096 297.03109406 -6.99108887 296.07667542 C-7.07987719 287.57370396 -10.11465562 280.64932815 -15.75952148 274.28613281 C-24.68730841 266.18708186 -36.32761364 266.56310306 -47.65014648 266.62988281 C-49.27675609 266.62718199 -50.90336412 266.62329468 -52.52996826 266.61828613 C-55.91881873 266.61242546 -59.30724427 266.6208465 -62.69604492 266.63964844 C-67.02581452 266.66250975 -71.35459599 266.64924851 -75.68432999 266.62535858 C-79.03537377 266.61086942 -82.38618505 266.61551951 -85.73723602 266.62586975 C-87.33353546 266.62852466 -88.92985647 266.62531108 -90.52613068 266.61595154 C-92.75846474 266.60572534 -94.98921846 266.62136514 -97.22143555 266.64355469 C-99.12025482 266.64832825 -99.12025482 266.64832825 -101.05743408 266.65319824 C-106.54790706 267.43282723 -110.24745679 269.6280613 -114.00952148 273.78613281 C-116.59250357 277.56126047 -116.76426094 279.60966865 -116.7816925 284.18319702 C-116.78884781 285.46753128 -116.79600311 286.75186554 -116.80337524 288.07511902 C-116.80621562 289.50662207 -116.80892734 290.93812539 -116.81152344 292.36962891 C-116.81778693 293.87080544 -116.82443363 295.37198042 -116.83143616 296.87315369 C-116.84885453 300.9578789 -116.85939983 305.04259241 -116.86764169 309.12734556 C-116.87278926 311.67789254 -116.87886505 314.22843586 -116.88515282 316.77898026 C-116.90420581 324.75491423 -116.91843765 332.73083892 -116.92676479 340.70679128 C-116.93654365 349.92166208 -116.96287952 359.13629308 -117.00326568 368.35107934 C-117.03339322 375.46874746 -117.04823039 382.5863467 -117.0515458 389.70407736 C-117.05389982 393.95761535 -117.06290582 398.21089718 -117.08800697 402.46436691 C-117.11123465 406.46499258 -117.1155426 410.46519246 -117.10524559 414.465868 C-117.10474884 415.93485617 -117.11111011 417.40386493 -117.12480164 418.87278938 C-117.14243695 420.87681595 -117.13305644 422.8810262 -117.12226868 424.88510132 C-117.12465703 426.00709112 -117.12704538 427.12908092 -117.12950611 428.28507042 C-116.52016999 431.8255616 -115.48469311 433.03182663 -112.63452148 435.16113281 C-108.83834502 435.19623616 -107.13098246 434.56574455 -104.18530273 432.16503906 C-103.07735352 430.95654297 -103.07735352 430.95654297 -101.94702148 429.72363281 C-96.02210911 423.34846803 -96.02210911 423.34846803 -92.14624023 422.82519531 C-91.21424805 422.81230469 -90.28225586 422.79941406 -89.32202148 422.78613281 C-88.39776367 422.75777344 -87.47350586 422.72941406 -86.52124023 422.70019531 C-80.14839864 423.7177803 -75.91787247 428.63123158 -71.63452148 433.09863281 C-69.65809971 435.14453817 -67.66410298 437.16788822 -65.63452148 439.16113281 C-65.13952148 439.65371582 -64.64452148 440.14629883 -64.13452148 440.65380859 C-61.79616739 442.81480706 -59.86553217 444.09671637 -56.79077148 444.95410156 C-51.70203336 443.67561909 -48.75629423 440.13041391 -45.13452148 436.47363281 C-31.88311238 423.44346867 -31.88311238 423.44346867 -27.85327148 422.53222656 C-26.50749023 422.56509766 -26.50749023 422.56509766 -25.13452148 422.59863281 C-24.23733398 422.59734375 -23.34014648 422.59605469 -22.41577148 422.59472656 C-16.12755306 423.87533284 -11.91340271 428.63589341 -7.63452148 433.09863281 C-1.07838909 440.44376261 -1.07838909 440.44376261 7.30297852 444.91113281 C11.26432014 443.94100833 12.81159316 442.11326143 15.51782227 439.15722656 C17.950486 436.52912684 20.60908428 434.24735381 23.34204102 431.93847656 C25.40108375 430.18339276 25.40108375 430.18339276 27.26391602 428.16503906 C31.01140071 424.36401887 33.55841868 422.67944834 38.99047852 422.47363281 C45.89824664 422.60530581 50.27046128 426.83744983 54.86547852 431.53417969 C55.36047852 432.05044922 55.85547852 432.56671875 56.36547852 433.09863281 C62.92161091 440.44376261 62.92161091 440.44376261 71.30297852 444.91113281 C75.26432014 443.94100833 76.81159316 442.11326143 79.51782227 439.15722656 C81.950486 436.52912684 84.60908428 434.24735381 87.34204102 431.93847656 C89.40108375 430.18339276 89.40108375 430.18339276 91.26391602 428.16503906 C95.01140071 424.36401887 97.55841868 422.67944834 102.99047852 422.47363281 C110.11344248 422.60940779 114.54205326 427.11564049 119.26977539 431.93847656 C119.81698242 432.50695312 120.36418945 433.07542969 120.92797852 433.66113281 C127.17016041 440.69263781 127.17016041 440.69263781 135.24047852 444.84863281 C139.28988823 443.95776267 140.77225886 442.15622659 143.51782227 439.15722656 C145.950486 436.52912684 148.60908428 434.24735381 151.34204102 431.93847656 C153.40108375 430.18339276 153.40108375 430.18339276 155.26391602 428.16503906 C159.01140071 424.36401887 161.55841868 422.67944834 166.99047852 422.47363281 C173.85633186 422.96540192 177.28549 426.00977538 181.86547852 430.84863281 C184.20015143 433.23999757 185.33729444 434.15063286 188.55297852 435.34863281 C191.4382625 435.41496463 191.4382625 435.41496463 193.50951385 433.53719044 C195.89292708 430.48587848 195.86817781 428.80347686 195.87341309 424.95671082 C195.88469238 423.68237686 195.89597168 422.40804291 195.90759277 421.09509277 C195.89981562 419.68505632 195.89162295 418.27502211 195.88305664 416.86499023 C195.88847759 415.37823297 195.89560011 413.89148109 195.90429688 412.40473938 C195.92254138 408.36731111 195.91545699 404.33029145 195.90278053 400.29285598 C195.89265296 396.06536874 195.90204606 391.83791647 195.9083252 387.61042786 C195.91560471 380.50771814 195.90600847 373.40517471 195.88696289 366.30249023 C195.8652186 358.09881643 195.87222636 349.89554066 195.89426851 341.69187659 C195.91244391 334.64457653 195.91496965 327.59739606 195.90451384 320.55008012 C195.8982874 316.34290793 195.89741926 312.13592252 195.91065979 307.92876244 C195.92224801 303.96989726 195.91413886 300.01154271 195.89108276 296.05273247 C195.88581036 294.60276384 195.88728428 293.15275196 195.89613342 291.70280075 C196.03192055 281.2079446 196.03192055 281.2079446 191.36547852 272.16113281 C189.46503182 270.3179761 189.46503182 270.3179761 187.36547852 269.16113281 C186.5357402 268.63838272 186.5357402 268.63838272 185.6892395 268.10507202 C182.46093044 266.79369468 179.6666541 266.89112658 176.18530273 266.87060547 C175.46926376 266.86388824 174.75322479 266.85717102 174.01548767 266.85025024 C171.65030957 266.83126922 169.28541554 266.82734521 166.92016602 266.82519531 C165.26831955 266.81876448 163.61647422 266.81203591 161.96463013 266.80502319 C158.49958663 266.79304805 155.03464281 266.78934231 151.56958008 266.79052734 C147.15141994 266.79072987 142.73390786 266.76349838 138.3159008 266.72898293 C134.90128712 266.70662355 131.48682673 266.70269265 128.07214737 266.7037468 C126.44481308 266.7014017 124.81747386 266.69264029 123.19021225 266.67708206 C112.72367443 266.58643009 101.79935438 266.72271002 93.73266602 274.49316406 C85.13218914 284.98574585 85.42980372 295.93095792 85.58325195 308.91503906 C85.61541796 312.15503321 85.58345506 315.3900406 85.54516602 318.62988281 C85.52111294 330.6783874 85.66424599 340.80164717 94.18481445 350.15917969 C101.1700633 356.91257055 108.82805137 357.75480582 118.08105469 357.71191406 C126.46959462 357.45253318 133.15270182 355.18012178 139.31860352 349.29785156 C147.19809953 339.75448139 146.88361893 328.36242271 147.05297852 316.59863281 C147.08620612 315.00160051 147.12070068 313.40459404 147.15649414 311.80761719 C147.24077345 307.92559957 147.30787275 304.0436341 147.36547852 300.16113281 C149.30297852 299.59863281 149.30297852 299.59863281 151.36547852 299.16113281 C152.87968853 300.67534282 152.57857707 302.08586049 152.68188477 304.19628906 C152.71999268 304.92468994 152.75810059 305.65309082 152.79736328 306.40356445 C152.86201782 307.79949829 152.86201782 307.79949829 152.92797852 309.22363281 C153.07235352 312.17300781 153.21672852 315.12238281 153.36547852 318.16113281 C163.26547852 318.49113281 173.16547852 318.82113281 183.36547852 319.16113281 C183.36547852 320.81113281 183.36547852 322.46113281 183.36547852 324.16113281 C181.53328205 325.99332928 178.60834111 325.40014609 176.14282227 325.47753906 C174.88276367 325.51943359 173.62270508 325.56132812 172.32446289 325.60449219 C170.98397116 325.64430877 169.64347632 325.68402095 168.30297852 325.72363281 C166.95856329 325.76681324 165.61416192 325.81042737 164.26977539 325.85449219 C160.96845511 325.96098639 157.66705616 326.06299742 154.36547852 326.16113281 C154.27395508 327.11270264 154.18243164 328.06427246 154.08813477 329.04467773 C153.00974426 339.48704197 150.3946852 348.83262622 142.49047852 356.16113281 C131.59738465 364.71701113 120.72433834 364.92307827 107.36547852 364.16113281 C98.4102235 362.95306004 92.31168144 358.10733574 86.05297852 351.84863281 C82.28483937 345.84752232 79.27254637 338.600645 79.18847656 331.48120117 C79.16922371 330.05843117 79.16922371 330.05843117 79.14958191 328.60691833 C79.14219498 327.58195755 79.13480804 326.55699677 79.12719727 325.50097656 C79.11912552 324.44133194 79.11105377 323.38168732 79.10273743 322.28993225 C79.08889796 320.04299555 79.07817519 317.79603783 79.0703125 315.54907227 C79.05316695 312.13614119 79.00928646 308.72419588 78.96508789 305.31152344 C78.95495467 303.12468158 78.94644054 300.9378315 78.93969727 298.75097656 C78.92218918 297.74018539 78.90468109 296.72939423 78.88664246 295.68797302 C78.91734429 285.50241477 82.21305235 276.55197318 89.36547852 269.16113281 C100.03985317 260.27924748 111.01734193 259.69512004 124.26391602 259.72753906 C125.90622166 259.72296895 127.5485254 259.71766093 129.19082642 259.71165466 C132.62184449 259.70275531 136.05262941 259.70510971 139.48364258 259.71508789 C143.85339557 259.72656559 148.22233896 259.70636865 152.5919857 259.67717075 C155.98091641 259.65871267 159.3696566 259.65912033 162.75862503 259.66480827 C164.36837524 259.66496036 165.9781393 259.65901052 167.58784103 259.6465168 C177.73730726 259.57883262 186.14383334 260.55031022 195.36547852 265.16113281 C195.4357949 246.01030219 195.48857695 226.85949804 195.52091503 207.70856476 C195.5363343 198.81494308 195.55732844 189.92140197 195.59179688 181.02783203 C195.62185147 173.26937377 195.64108934 165.51097391 195.647744 157.75245905 C195.65162927 153.65056782 195.66065501 149.54884354 195.68266869 145.44700623 C195.70328874 141.5728333 195.70926182 137.69889339 195.70480156 133.82467079 C195.70561552 132.41555317 195.71142736 131.00642635 195.72309494 129.5973568 C195.82627954 116.47332494 194.02381241 103.67578747 189.74047852 91.22363281 C189.48959473 90.4862085 189.23871094 89.74878418 188.98022461 88.98901367 C182.86166144 71.80772301 172.81830062 57.36599035 160.36547852 44.16113281 C159.75317383 43.484375 159.14086914 42.80761719 158.51000977 42.11035156 C142.77406759 25.36784592 119.56632581 14.78853833 97.36547852 10.16113281 C96.7038118 9.99806137 96.04214508 9.83498993 95.36042786 9.66697693 C85.64543484 7.53466535 75.83782028 7.87167915 65.94750977 7.89550781 C63.96131849 7.89415741 61.97512754 7.89221376 59.98893738 7.88970947 C55.83764481 7.88677245 51.68643871 7.8910076 47.53515625 7.90039062 C42.25817577 7.91174682 36.98139966 7.90524087 31.70442677 7.8932457 C27.60418713 7.88595652 23.50399447 7.88834774 19.40375328 7.89350128 C17.46042544 7.8948203 15.5170931 7.89325258 13.57377052 7.88854218 C-22.30153208 7.82068441 -53.27640632 16.87798156 -79.63452148 42.16113281 Z " fill="#140418" transform="translate(216.634521484375,26.8388671875)"/>
<path d="M0 0 C0.98162109 -0.01611328 1.96324219 -0.03222656 2.97460938 -0.04882812 C17.77440662 -0.05862283 29.81159369 5.92665288 40.46875 16.02734375 C51.35082551 27.23511518 57.26642386 41.23005487 57.24755859 56.90332031 C56.7476672 69.3392149 51.88393156 81.9715975 43.6875 91.3125 C43.00816406 92.10011719 42.32882813 92.88773437 41.62890625 93.69921875 C31.74866023 104.35438603 17.47579276 110.42281753 2.99609375 111.515625 C-13.33741093 111.78229446 -27.26193689 106.0277309 -39.09375 94.6953125 C-45.29111113 88.03969579 -49.4886632 80.94460776 -52.3125 72.3125 C-52.66828125 71.27738281 -53.0240625 70.24226563 -53.390625 69.17578125 C-57.24344074 53.02987121 -54.30617176 38.43566202 -45.9375 24.4375 C-35.24757651 8.60907252 -18.93350422 -0.06143253 0 0 Z " fill="#FDC344" transform="translate(185.3125,118.6875)"/>
<path d="M0 0 C12.65550494 9.64722918 21.80490135 21.80991582 24.6875 37.75 C25.59575818 47.26314757 25.57391532 56.88779537 21.6875 65.75 C21.2853125 66.71164063 20.883125 67.67328125 20.46875 68.6640625 C17.02679738 76.21723631 12.58373105 81.94719515 6.6875 87.75 C6.0996875 88.33652344 5.511875 88.92304688 4.90625 89.52734375 C0.42466162 93.68126883 -4.69362365 96.40750446 -10.3125 98.75 C-10.9420459 99.01256592 -11.5715918 99.27513184 -12.22021484 99.5456543 C-18.56284574 101.94643641 -24.45159618 102.23433625 -31.1875 102.1875 C-32.19941406 102.20748047 -33.21132813 102.22746094 -34.25390625 102.24804688 C-49.06049359 102.23856763 -61.3699158 95.16929778 -71.98828125 85.234375 C-83.97166791 72.42524237 -86.95342998 57.57306197 -86.65234375 40.62109375 C-86.03219853 27.42306534 -78.92242927 14.30100096 -69.3046875 5.3671875 C-65.21238262 2.04519883 -60.92172381 -0.70008775 -56.3125 -3.25 C-55.40371094 -3.76175781 -54.49492187 -4.27351563 -53.55859375 -4.80078125 C-36.78290714 -12.73069969 -15.19701854 -9.92316736 0 0 Z " fill="#FDC344" transform="translate(359.3125,127.25)"/>
<path d="M0 0 C0.33 0 0.66 0 1 0 C1.09339566 19.74921273 1.16395579 39.49838071 1.20724869 59.2477684 C1.22788365 68.41753263 1.25602203 77.58715972 1.30175781 86.75683594 C1.34159706 94.74810382 1.36742602 102.73927241 1.37635398 110.73063684 C1.3815737 114.96298274 1.39386108 119.19504455 1.42292023 123.4272995 C1.45004349 127.40982225 1.45845136 131.39194352 1.45243073 135.37454987 C1.45353236 136.83709392 1.46150496 138.29965122 1.4768219 139.76211548 C1.49669722 141.75746987 1.48956041 143.75303903 1.48101807 145.74847412 C1.48470524 146.86568722 1.48839241 147.98290031 1.49219131 149.13396835 C0.88512118 152.66893974 -0.15527502 153.87339663 -3 156 C-6.78993172 156.03499937 -8.4896303 155.42200472 -11.4140625 153.00390625 C-12.50847656 151.79541016 -12.50847656 151.79541016 -13.625 150.5625 C-17.85483893 145.93936026 -20.7789372 143.72878692 -27.125 143.3125 C-34.62231931 143.48109051 -38.06044208 147.8372259 -43 153 C-45.22026022 155.21958455 -47.47999153 157.3939986 -49.75 159.5625 C-50.28093262 160.09907227 -50.81186523 160.63564453 -51.35888672 161.18847656 C-53.82019533 163.55520818 -55.63719644 164.91653147 -58.98828125 165.6875 C-63.15521806 164.73629264 -65.51160486 162.37687853 -68.4375 159.4375 C-69.005896 158.8904541 -69.57429199 158.3434082 -70.15991211 157.77978516 C-73.69192801 154.36444245 -77.1740912 150.88863485 -80.53515625 147.3046875 C-84.57057432 143.71047514 -88.82730676 143.26083229 -94.078125 143.37890625 C-99.77237013 144.58931397 -103.10180946 148.92565216 -107 153 C-109.22026022 155.21958455 -111.47999153 157.3939986 -113.75 159.5625 C-114.28093262 160.09907227 -114.81186523 160.63564453 -115.35888672 161.18847656 C-117.77996783 163.51652644 -119.65440312 164.91094767 -122.92578125 165.75390625 C-127.58515295 164.61126491 -130.12468432 161.72488686 -133.4375 158.375 C-134.70570482 157.13145832 -135.97522929 155.88926097 -137.24609375 154.6484375 C-137.86468262 154.03967773 -138.48327148 153.43091797 -139.12060547 152.80371094 C-145.27116026 146.90084022 -149.18366958 143.29946324 -158.0078125 143.4140625 C-163.76676075 144.54179388 -167.07558558 148.89824324 -171 153 C-173.22026022 155.21958455 -175.47999153 157.3939986 -177.75 159.5625 C-178.28093262 160.09907227 -178.81186523 160.63564453 -179.35888672 161.18847656 C-181.77996783 163.51652644 -183.65440312 164.91094767 -186.92578125 165.75390625 C-191.58515295 164.61126491 -194.12468432 161.72488686 -197.4375 158.375 C-198.70570482 157.13145832 -199.97522929 155.88926097 -201.24609375 154.6484375 C-201.86468262 154.03967773 -202.48327148 153.43091797 -203.12060547 152.80371094 C-209.27116026 146.90084022 -213.18366958 143.29946324 -222.0078125 143.4140625 C-227.76676075 144.54179388 -231.07558558 148.89824324 -235 153 C-237.22026022 155.21958455 -239.47999153 157.3939986 -241.75 159.5625 C-242.28093262 160.09907227 -242.81186523 160.63564453 -243.35888672 161.18847656 C-245.77996783 163.51652644 -247.65440312 164.91094767 -250.92578125 165.75390625 C-255.58515295 164.61126491 -258.12468432 161.72488686 -261.4375 158.375 C-262.70570482 157.13145832 -263.97522929 155.88926097 -265.24609375 154.6484375 C-266.17397705 153.73529785 -266.17397705 153.73529785 -267.12060547 152.80371094 C-273.27796258 146.89431183 -277.16270354 143.36732944 -285.97265625 143.37890625 C-291.7066598 144.55530182 -295.0642099 148.93792786 -299 153 C-302.50456053 156.01981758 -302.50456053 156.01981758 -306.125 155.875 C-309 155 -309 155 -311 152 C-311.22705078 149.27270508 -311.22705078 149.27270508 -311.1953125 146.01953125 C-311.18886719 144.85615234 -311.18242187 143.69277344 -311.17578125 142.49414062 C-311.15902344 141.27919922 -311.14226562 140.06425781 -311.125 138.8125 C-311.11597656 137.58595703 -311.10695313 136.35941406 -311.09765625 135.09570312 C-311.07406017 132.06360705 -311.04113841 129.03190062 -311 126 C-310.4112207 126.11496826 -309.82244141 126.22993652 -309.21582031 126.34838867 C-303.9965771 127.21363794 -303.9965771 127.21363794 -299.109375 125.48828125 C-298.33078125 124.77027344 -297.5521875 124.05226563 -296.75 123.3125 C-295.96109375 122.60738281 -295.1721875 121.90226562 -294.359375 121.17578125 C-293.58078125 120.45777344 -292.8021875 119.73976563 -292 119 C-288.37776399 115.84782515 -286.11276425 114.14846649 -281.09765625 114.4296875 C-276.80541171 115.59666646 -274.06770064 118.93789736 -271 122 C-268.45317943 124.32140322 -265.88440808 126.61661017 -263.3125 128.91015625 C-261.95256148 130.13915474 -260.61012409 131.38897342 -259.3125 132.68359375 C-256.6072496 135.27857579 -254.84458871 136.0300796 -251.125 136.75 C-245.61912158 136.32567478 -242.73572562 132.72970026 -239 129 C-237.1910492 127.29218695 -235.36968215 125.59841455 -233.54541016 123.90698242 C-232.27509656 122.72823605 -231.00905946 121.5448625 -229.74755859 120.35668945 C-229.16312988 119.80843506 -228.57870117 119.26018066 -227.9765625 118.6953125 C-227.18886475 117.9530542 -227.18886475 117.9530542 -226.38525391 117.19580078 C-223.5920117 114.78457407 -220.84650361 114.47099186 -217.1953125 114.54296875 C-212.77886354 115.46240741 -210.09343559 118.91186139 -207 122 C-205.46275066 123.43782269 -203.91227295 124.86019884 -202.35839844 126.2800293 C-201.30570325 127.24212367 -200.25671085 128.20828911 -199.21191406 129.17895508 C-193.94813927 134.28336767 -193.94813927 134.28336767 -187.25 136.625 C-181.60687063 136.34594415 -178.81849821 132.81233934 -175 129 C-173.1910492 127.29218695 -171.36968215 125.59841455 -169.54541016 123.90698242 C-168.27509656 122.72823605 -167.00905946 121.5448625 -165.74755859 120.35668945 C-165.16312988 119.80843506 -164.57870117 119.26018066 -163.9765625 118.6953125 C-163.45143066 118.20047363 -162.92629883 117.70563477 -162.38525391 117.19580078 C-159.5920117 114.78457407 -156.84650361 114.47099186 -153.1953125 114.54296875 C-148.77886354 115.46240741 -146.09343559 118.91186139 -143 122 C-141.46275066 123.43782269 -139.91227295 124.86019884 -138.35839844 126.2800293 C-137.30570325 127.24212367 -136.25671085 128.20828911 -135.21191406 129.17895508 C-129.94813927 134.28336767 -129.94813927 134.28336767 -123.25 136.625 C-117.70028586 136.40877737 -114.6760478 132.80255147 -111 129 C-96.98916428 114.70643441 -96.98916428 114.70643441 -90.9375 114.125 C-85.62719204 114.6872679 -82.61215606 118.3938442 -79 122 C-77.32687745 123.57277679 -75.64095028 125.13086638 -73.9519043 126.68652344 C-72.79037794 127.75692132 -71.63286442 128.83169282 -70.47973633 129.91113281 C-64.75371149 135.29211606 -64.75371149 135.29211606 -57.1796875 136.5078125 C-52.81306639 135.49049934 -50.02814293 132.13235028 -47 129 C-32.98916428 114.70643441 -32.98916428 114.70643441 -26.9375 114.125 C-21.71027425 114.61245954 -18.57430101 118.50512791 -15 122 C-13.86105761 123.01128072 -12.69567467 123.99397441 -11.5 124.9375 C-10.77296875 125.53884766 -10.77296875 125.53884766 -10.03125 126.15234375 C-7.13634798 127.51349253 -7.13634798 127.51349253 0 127 C0 85.09 0 43.18 0 0 Z " fill="#CBC4B8" transform="translate(411,306)"/>
<path d="M0 0 C0.98162109 -0.01611328 1.96324219 -0.03222656 2.97460938 -0.04882812 C17.77440662 -0.05862283 29.81159369 5.92665288 40.46875 16.02734375 C51.35082551 27.23511518 57.26642386 41.23005487 57.24755859 56.90332031 C56.7476672 69.3392149 51.88393156 81.9715975 43.6875 91.3125 C43.00816406 92.10011719 42.32882813 92.88773437 41.62890625 93.69921875 C31.74866023 104.35438603 17.47579276 110.42281753 2.99609375 111.515625 C-13.33741093 111.78229446 -27.26193689 106.0277309 -39.09375 94.6953125 C-45.29111113 88.03969579 -49.4886632 80.94460776 -52.3125 72.3125 C-52.66828125 71.27738281 -53.0240625 70.24226563 -53.390625 69.17578125 C-57.24344074 53.02987121 -54.30617176 38.43566202 -45.9375 24.4375 C-35.24757651 8.60907252 -18.93350422 -0.06143253 0 0 Z M-34.8515625 22.984375 C-40.26186562 30.53544555 -39.14431988 42.4915529 -38.3125 51.3125 C-35.56045015 63.27095877 -28.42095536 74.2812785 -18.3125 81.3125 C-6.35322364 88.3867714 5.68485835 91.60583851 19.50390625 88.4375 C27.50603035 86.11531101 34.25075241 82.65363098 40.6875 77.3125 C41.656875 76.549375 42.62625 75.78625 43.625 75 C49.30487969 67.59894465 49.4793175 58.29366282 48.6875 49.3125 C46.39574461 36.02387186 39.94435554 24.8710391 29.3515625 16.45703125 C9.55443982 2.7747195 -18.29767723 5.00198186 -34.8515625 22.984375 Z " fill="#160518" transform="translate(185.3125,118.6875)"/>
<path d="M0 0 C12.65550494 9.64722918 21.80490135 21.80991582 24.6875 37.75 C25.59575818 47.26314757 25.57391532 56.88779537 21.6875 65.75 C21.2853125 66.71164063 20.883125 67.67328125 20.46875 68.6640625 C17.02679738 76.21723631 12.58373105 81.94719515 6.6875 87.75 C6.0996875 88.33652344 5.511875 88.92304688 4.90625 89.52734375 C0.42466162 93.68126883 -4.69362365 96.40750446 -10.3125 98.75 C-10.9420459 99.01256592 -11.5715918 99.27513184 -12.22021484 99.5456543 C-18.56284574 101.94643641 -24.45159618 102.23433625 -31.1875 102.1875 C-32.19941406 102.20748047 -33.21132813 102.22746094 -34.25390625 102.24804688 C-49.06049359 102.23856763 -61.3699158 95.16929778 -71.98828125 85.234375 C-83.97166791 72.42524237 -86.95342998 57.57306197 -86.65234375 40.62109375 C-86.03219853 27.42306534 -78.92242927 14.30100096 -69.3046875 5.3671875 C-65.21238262 2.04519883 -60.92172381 -0.70008775 -56.3125 -3.25 C-55.40371094 -3.76175781 -54.49492187 -4.27351563 -53.55859375 -4.80078125 C-36.78290714 -12.73069969 -15.19701854 -9.92316736 0 0 Z M-66.3125 13.75 C-74.38068844 23.82193634 -78.48309608 33.12369244 -78.5625 45.9375 C-78.583125 46.75025391 -78.60375 47.56300781 -78.625 48.40039062 C-78.66868392 55.26422609 -77.71423501 61.59357968 -73.47265625 67.16796875 C-61.04886452 77.64837406 -48.47093705 82.11379971 -32.3125 80.75 C-19.17015627 78.23306032 -7.62495917 71.36482955 0.3046875 60.54296875 C7.94503043 48.77836111 10.49248875 35.90225192 8.25 22.046875 C6.24459859 14.67702483 1.09538539 10.22254989 -5.0625 6.0625 C-6.46247733 5.26175539 -7.88034134 4.49165359 -9.3125 3.75 C-10.055 3.35554687 -10.7975 2.96109375 -11.5625 2.5546875 C-29.90573381 -5.64244511 -52.33643885 0.08451798 -66.3125 13.75 Z " fill="#160518" transform="translate(359.3125,127.25)"/>
<path d="M0 0 C5.21266901 3.2908264 9.90664449 7.7435539 11.859375 13.75390625 C13.02768162 20.05359883 13.49206714 26.68725181 10.1328125 32.33984375 C6.44284012 37.35361979 2.23655479 40.92668432 -3.7421875 42.90234375 C-10.89167805 43.77200009 -17.17811397 43.81253791 -23.09375 39.39453125 C-27.98331749 34.96842987 -31.29774046 30.55616623 -32.11328125 23.8515625 C-32.26319 16.48839752 -31.78921011 11.46329294 -26.7421875 5.90234375 C-19.41420166 -1.40690044 -9.96796067 -3.99002414 0 0 Z " fill="#140418" transform="translate(265.7421875,231.09765625)"/>
<path d="M0 0 C3.9269987 2.05938148 6.39988812 4.13481413 7.96484375 8.27734375 C8.70772665 13.92743903 8.29994651 18.49702979 4.96484375 23.27734375 C1.32991366 26.73052734 -1.65220058 27.59436908 -6.53515625 27.83984375 C-10.24680027 27.70349764 -12.66363435 27.35581813 -15.59765625 25.02734375 C-19.94983953 20.11718826 -20.53418605 16.44740712 -20.421875 9.9765625 C-19.8079269 5.6913288 -18.24960912 4.12651788 -15.03515625 1.27734375 C-10.33384336 -1.5125524 -5.16546702 -1.83418695 0 0 Z " fill="#303537" transform="translate(262.03515625,238.72265625)"/>
<path d="M0 0 C0.33 0 0.66 0 1 0 C1.71368322 14.90804956 -1.4712378 26.67839625 -11.125 38.125 C-20.75339315 48.40914751 -32.62455825 53.73806016 -46.625 54.25 C-57.27701642 54.0902996 -66.0032659 50.47242291 -75 45 C-73 44 -73 44 -71.14453125 44.55859375 C-69.99017578 44.99365234 -69.99017578 44.99365234 -68.8125 45.4375 C-55.66203414 49.55532264 -42.01028647 47.01006583 -29.8125 41.25 C-16.03724979 33.87808875 -6.63697515 23.08938324 -2 8 C-1.24947273 5.34061726 -0.59984406 2.69929829 0 0 Z " fill="#2F3336" transform="translate(375,168)"/>
<path d="M0 0 C1.86116748 2.79175122 2.67559869 4.84982761 3.6875 8 C9.03233939 22.96555029 18.44203627 32.16361103 32.359375 39.19140625 C44.75537946 44.98333247 57.74949022 46.01721924 70.828125 41.55859375 C73 41 73 41 76 42 C61.79782035 49.78098141 48.89246598 53.39953494 33.01953125 49.0390625 C19.31548752 44.32331136 10.28042614 35.80849605 3.51953125 23.25 C-0.19545734 15.42458986 -0.57080251 8.57472215 0 0 Z " fill="#2F3336" transform="translate(139,171)"/>
<path d="M0 0 C-3.96 1.98 -3.96 1.98 -8 4 C-8 3.34 -8 2.68 -8 2 C-8.66 1.67 -9.32 1.34 -10 1 C-3.375 -1.125 -3.375 -1.125 0 0 Z " fill="#27262D" transform="translate(215,213)"/>
</svg>
